<svg width="26" height="25" viewBox="0 0 26 25" fill="none" xmlns="http://www.w3.org/2000/svg">
<path d="M3.93595 5.71025H14.895C15.5865 5.71025 16.1474 4.94278 16.1474 3.99795C16.1474 3.05249 15.5861 2.28564 14.895 2.28564H3.93595C3.24445 2.28564 2.68359 3.05311 2.68359 3.99795C2.68359 4.9434 3.24448 5.71025 3.93595 5.71025Z" fill="#98A6B5"/>
<path d="M3.93595 14.2726H22.4098C23.1013 14.2726 23.6622 13.5052 23.6622 12.5603C23.6622 11.6149 23.1009 10.848 22.4098 10.848H3.93595C3.24445 10.848 2.68359 11.6155 2.68359 12.5603C2.68359 13.5058 3.24448 14.2726 3.93595 14.2726Z" fill="#98A6B5"/>
<path d="M22.4098 19.2692H3.93595C3.24445 19.2692 2.68359 20.0366 2.68359 20.9815C2.68359 21.9269 3.24491 22.6938 3.93595 22.6938H22.4098C23.1013 22.6938 23.6622 21.9263 23.6622 20.9815C23.6622 20.036 23.1017 19.2692 22.4098 19.2692Z" fill="#98A6B5"/>
</svg>
